<svg width="15" height="15" viewBox="0 0 15 15" fill="none" xmlns="http://www.w3.org/2000/svg">
<path d="M7.47755 1.25875e-05C3.33755 0.0150126 -0.0149499 3.38251 5.01399e-05 7.52251C0.0150501 11.6625 3.38255 15.015 7.52255 15C11.6625 14.985 15.015 11.6175 15 7.47751C14.9851 3.33751 11.6175 -0.00748741 7.47755 1.25875e-05ZM9.19505 7.57501C9.78005 7.77751 10.5676 8.21251 10.5676 9.55501C10.5676 10.71 9.66005 11.64 8.55005 11.64H8.06255V12.075C8.06255 12.3825 7.80755 12.6375 7.50005 12.6375C7.19255 12.6375 6.93755 12.3825 6.93755 12.075V11.64H6.66755C5.43755 11.64 4.44005 10.605 4.44005 9.33001C4.44005 9.02251 4.69505 8.76751 5.00255 8.76751C5.31005 8.76751 5.56505 9.02251 5.56505 9.33001C5.56505 9.98251 6.06005 10.515 6.66755 10.515H6.93755V7.98001L5.80505 7.57501C5.22005 7.37251 4.43255 6.93751 4.43255 5.59501C4.43255 4.44001 5.34005 3.51001 6.45005 3.51001H6.93755V3.07501C6.93755 2.76751 7.19255 2.51251 7.50005 2.51251C7.80755 2.51251 8.06255 2.76751 8.06255 3.07501V3.51001H8.33255C9.56255 3.51001 10.5601 4.54501 10.5601 5.82001C10.5601 6.12751 10.305 6.38251 9.99755 6.38251C9.69005 6.38251 9.43505 6.12751 9.43505 5.82001C9.43505 5.16751 8.94005 4.63501 8.33255 4.63501H8.06255V7.17001L9.19505 7.57501Z" fill="#FFC01E"/>
</svg>
